<?xml version="1.0" encoding="utf-8"?>
<!-- Generator: Adobe Illustrator 16.0.0, SVG Export Plug-In . SVG Version: 6.00 Build 0)  -->
<!DOCTYPE svg PUBLIC "-//W3C//DTD SVG 1.1//EN" "http://www.w3.org/Graphics/SVG/1.1/DTD/svg11.dtd">
<svg version="1.1" id="Layer_1" xmlns="http://www.w3.org/2000/svg" xmlns:xlink="http://www.w3.org/1999/xlink" x="0px" y="0px"
	 width="612px" height="792px" viewBox="0 0 612 792" enable-background="new 0 0 612 792" xml:space="preserve">
<rect y="151.2" display="none" fill="#3C3C3B" width="612" height="489.6"/>
<path fill="#AE938A" d="M354.104,470.358c-5.876,1.162-14.994,2.938-24.052,4.773c-3.366,0.673-7.65,1.469-5.937-3.855
	c2.142-6.549,4.651-13.525,8.936-18.666c6.731-8.079,32.007-5.814,38.556,2.387c30.478,38.25,29.254,47.98-9.547,77.418
	c-5.569,4.223-11.322,8.078-17.259,11.75c-4.468,2.754-9.425,5.141-13.525-0.489c-4.161-5.691-5.446-11.384-0.184-17.626
	c15.851-18.85,16.034-19.094,3.795-39.352c-3.672-6.12,0.244-6.487,3.732-7.099c8.201-1.408,16.524-2.265,24.786-3.366
	c2.57-0.367,6.916,0.673,7.1-2.326c0.245-4.712-4.651-3.06-7.467-3.549C361.202,470.113,359.305,470.358,354.104,470.358
	L354.104,470.358z"/>
<path fill="#AE938A" d="M250.736,447.041c24.235-0.367,30.723,3.794,34.701,19.339c2.203,8.69-0.673,9.67-8.262,8.018
	c-8.629-1.836-17.381-3.061-26.132-3.855c-3.672-0.307-10.098-1.897-10.343,3.182c-0.184,4.162,6.059,1.959,9.363,2.632
	c2.693,0.489,5.569,0.245,8.323,0.551c18.177,2.02,18.36,2.387,8.874,16.463c-6.609,9.792-5.263,21.481,3.794,30.355
	c2.632,2.57,5.753,4.712,8.568,7.16c4.528,3.979,2.938,8.262,0.306,12.484c-2.815,4.468-6.793,4.713-10.894,2.448
	c-17.993-10.036-34.088-22.583-47.185-38.617c-3.611-4.406-5.08-10.036-3.733-15.851c4.101-17.564,16.83-29.621,27.907-42.656
	C247.309,447.225,250.247,447.225,250.736,447.041L250.736,447.041z"/>
<path fill="#BBA298" d="M374.482,560.383c-0.367,32.069,3.183,28.214-28.213,28.397c-28.274,0.184-28.213,0.061-23.256-28.397
	c1.102-6.426-0.184-12.606,10.894-7.527c9.058,4.162,16.769-5.386,24.725-9.792c4.651-2.57,8.385-9.854,13.893-6.854
	c4.223,2.326,1.53,9.425,1.897,14.382C374.666,553.896,374.482,557.14,374.482,560.383z"/>
<path fill="#BBA298" d="M243.147,563.015c0-24.541,0.184-24.847,20.502-13.097c10.71,6.182,18.299,4.468,23.991-6.365
	c1.469-2.814,2.754-6.793,6.732-5.691c4.406,1.225,2.264,5.508,2.081,8.385c-0.551,8.323-2.57,16.646-2.142,24.847
	c0.796,15.423-6.916,19.462-20.379,17.688c-1.836-0.245-3.733,0-5.569,0C240.516,588.719,243.393,590.922,243.147,563.015z"/>
<path fill="#986E4B" d="M298.289,594.717c-0.673-16.83,1.775-33.416,4.162-50.001c1.163-8.2,1.958-15.238-9.608-15.116
	c-4.039,0-7.344-1.958-7.65-6.487c-0.306-4.039,1.714-7.222,5.019-9.363c4.345-2.815,6.732,0.244,9.119,3.366
	c1.714,2.203,3.366,5.385,5.63,5.997c19.034,5.141,15.055,18.85,13.036,32.437c-3.06,20.686-5.446,41.493-8.14,62.179
	c-0.551,4.039-0.429,9.486-6.181,9.18c-5.63-0.306-5.141-5.813-5.263-9.853C298.044,609.588,298.289,602.121,298.289,594.717
	L298.289,594.717z"/>
<g>
	<path fill="#ACC473" d="M306.184,446.062c-39.963-2.754-77.785-7.222-114.016-20.38c-49.083-17.809-62.363-47.185-47.001-103.489
		c2.57-9.425,7.283-18.176,12.974-26.194c18.115-25.336,36.047-50.857,54.713-75.766c45.716-61.077,140.087-60.955,185.681,0.551
		c19.4,26.133,39.597,51.714,56.794,79.438c12.668,20.44,17.503,42.595,15.851,66.646c-1.652,23.807-13.402,39.78-34.088,50.49
		c-29.866,15.423-62.363,21.114-95.166,25.337C329.501,444.287,316.955,445.082,306.184,446.062L306.184,446.062z M253.98,326.109
		c-0.306-14.198-12.118-25.582-25.949-25.153c-13.954,0.428-24.97,12.24-24.664,26.5c0.306,14.076,12.24,25.704,26.01,25.337
		C243.086,352.303,254.286,340.247,253.98,326.109L253.98,326.109z M382.438,352.67c13.771,0.123,25.276-11.689,25.276-25.888
		c0.061-13.954-11.629-25.888-25.398-25.826c-13.77,0.061-25.398,11.934-25.337,25.887
		C357.041,340.859,368.547,352.548,382.438,352.67L382.438,352.67z M356.307,383.943c-0.367,0.184-2.51,0.551-3.795,1.775
		c-20.195,19.094-69.523,19.952-90.086,1.775c-4.835-4.284-4.101-6.426,1.102-8.813c2.448-1.102,6.12-2.203,4.039-5.63
		c-1.897-3.243-5.141-0.551-7.405,0.49c-10.833,4.896-19.89,12.118-25.888,22.46c-2.815,4.835-9.547,11.566-3.672,15.545
		c3.978,2.632,4.651-7.344,7.895-10.894c0.612-0.674,0.979-1.592,1.469-2.387c5.447-8.813,9.853-13.097,21.359-4.896
		c28.825,20.563,59.425,17.626,89.168,0.734c15.239-8.629,16.341-8.69,23.685,7.345c0.796,1.713,1.469,3.427,2.142,5.141
		c0.857,2.142,1.53,5.141,4.346,4.223c2.448-0.857,2.02-3.917,1.347-6.059c-5.019-16.585-16.341-27.724-31.212-35.619
		c-1.653-0.857-3.673-1.469-4.835,0.673c-1.102,2.081,0.489,3.366,1.896,4.528C350.615,376.6,355.021,376.906,356.307,383.943
		L356.307,383.943z M282.989,234.31c-26.683,1.224-51.653,5.019-73.93,19.033c-2.264,1.408-5.814,3.121-4.529,6.059
		c1.469,3.489,4.712,1.347,6.977,0c22.032-13.402,46.39-17.564,71.665-18.36c3.488-0.123,9.547,0.918,9.241-3.305
		C292.046,232.474,285.804,234.738,282.989,234.31L282.989,234.31z M328.338,234.187c-2.815,0.551-9.67-1.652-9.67,2.999
		c-0.061,6.365,7.1,3.855,11.077,3.917c23.991,0.612,46.88,5.019,67.993,17.075c2.51,1.469,6.243,5.447,8.323,1.652
		c2.326-4.284-3.182-5.814-6.059-7.528C378.338,239.206,354.164,235.534,328.338,234.187L328.338,234.187z M329.439,211.543
		c-5.141,1.041-11.628-1.774-12.179,3.183s5.998,3.917,9.73,4.345c11.995,1.408,23.991,2.509,35.986,3.733
		c2.203,0.245,5.263,1.346,6.059-1.347c1.163-3.794-2.51-4.467-5.08-4.896C352.084,214.665,340.149,213.073,329.439,211.543z
		 M281.887,211.666c-10.098,1.347-21.542,2.815-32.864,4.468c-2.999,0.428-7.711,0.367-7.222,4.529
		c0.612,4.957,5.202,2.264,7.895,1.836c11.383-1.958,22.767-3.121,34.333-3.366c3.672-0.061,10.22,1.53,9.792-3.978
		C293.515,210.197,287.089,212.461,281.887,211.666z M265.914,200.956c7.772-0.551,15.545-1.163,23.378-1.713
		c2.387-0.184,5.08-0.979,5.263-3.489c0.184-2.693-2.57-3.427-4.896-3.733c-8.384-0.979-16.524,0.795-24.542,2.938
		c-2.081,0.551-4.651,1.714-3.672,4.712C262.059,201.69,264.017,201.874,265.914,200.956z M328.827,191.531
		c-4.59,1.163-11.566-2.081-11.812,4.162c-0.122,4.406,6.732,2.938,10.588,3.55c5.447,0.856,10.894,1.407,16.341,2.081
		c2.203,0.306,4.896,0.979,5.753-1.897c0.856-2.999-1.837-3.978-3.917-4.468C340.027,193.55,334.152,192.571,328.827,191.531z"/>
	<path fill="#ACC473" d="M519.404,229.475c-28.152-0.489-54.529,6.304-78.825,20.257c-8.323,4.774-12.853,2.326-16.708-4.834
		c-4.957-9.364,4.713-8.69,8.323-10.526c49.389-25.276,100.49-27.846,152.816-9.976c3.366,1.163,8.812,1.591,8.936,5.141
		c0.122,3.917-5.509,4.284-8.69,5.753c-17.442,7.956-31.09,19.768-41.065,36.353c-14.505,24.113-35.863,41.31-59.854,55.325
		c-2.632,1.53-7.589,7.589-9.67,0.123c-1.652-5.814-10.526-12.729-1.714-18.421c29.254-18.911,43.024-54.223,75.031-70.013
		c1.408-0.673,2.877-2.815,2.938-4.284c0.061-2.938-2.693-3.366-5.019-3.549C537.03,230.271,528.217,229.903,519.404,229.475z"/>
	<path fill="#ACC473" d="M95.289,213.44c29.56-2.02,57.222,8.813,84.333,21.42c3.611,1.652,11.75,1.836,7.466,9.854
		c-3.305,6.181-7.222,10.159-15.361,5.385c-30.845-18.054-64.566-22.46-99.633-19.707c-3.917,0.306-9.731-1.591-11.322,2.999
		c-2.02,5.998,4.896,6.916,8.323,9.302c16.157,11.261,30.417,24.419,41.555,40.821c6.671,9.73,15.3,17.564,25.398,23.5
		c10.588,6.243,2.754,13.219,0.612,19.033c-3.305,8.874-8.384,1.469-11.75-0.49c-21.91-12.791-41.677-28.58-55.141-50.245
		c-11.444-18.482-25.888-32.62-45.839-41.065c-2.509-1.041-6.365-1.775-5.998-4.774c0.245-1.713,3.917-3.427,6.365-4.345
		C46.879,217.051,70.074,212.89,95.289,213.44z"/>
	<path fill="#ACC473" d="M325.768,613.75c-4.957-0.184-9.425-0.184-8.507-7.283c0.673-5.141,0.367-10.404,7.895-10.343
		c17.075,0.122,34.211,0,51.286,0.122c5.019,0.062,8.629,2.999,11.628,6.732c2.02,2.509,4.345,5.386,2.999,8.752
		c-1.53,3.978-5.569,2.387-8.507,2.447c-9.241,0.184-18.482,0.062-27.724,0.062C350.248,614.178,335.498,614.056,325.768,613.75
		L325.768,613.75z"/>
	<path fill="#ACC473" d="M257.101,614.668c-8.384,0-16.708-0.245-25.092,0.061c-8.813,0.307-8.201-4.101-4.773-9.363
		c3.305-5.202,7.772-9.303,14.626-9.303c13.954,0,27.846,0,41.8-0.061c5.447,0,8.812,1.469,8.507,7.895
		c-0.306,5.875-0.796,8.14-8.568,9.67C273.319,614.79,257.101,614.301,257.101,614.668z"/>
	<path fill="#ACC473" d="M337.396,504.018c-0.856,10.894-6.242,17.626-17.381,17.993s-17.381-5.997-18.299-16.83
		c-0.856-9.73,7.283-17.932,17.197-17.932C329.99,487.311,335.927,493.308,337.396,504.018L337.396,504.018z"/>
	<path fill="#ACC473" d="M269.892,507.935c0.123-12.484,6.365-18.359,17.014-19.217c4.223-0.367,9.669,0,10.281,6.487
		c0.245,2.387-18.604,24.664-20.624,23.99C270.565,517.237,270.626,511.668,269.892,507.935L269.892,507.935z"/>
</g>
<g>
	<path fill="#62704D" d="M535.011,239.573c-1.225,1.102-2.51,2.387-3.979,3.427c-15.605,11.322-27.968,25.765-39.106,41.31
		c-1.592,2.264-3.672,4.162-5.691,6.12c-16.892,16.585-18.605,16.401-31.396-2.632c-4.407-6.548-8.63-13.28-13.709-19.339
		c-6.06-7.16-3.611-10.343,3.794-14.382c26.133-14.076,54.04-19.217,83.416-17.87C530.665,236.329,534.093,234.922,535.011,239.573z
		"/>
	<path fill="#62704D" d="M95.043,236.207c25.214-0.184,48.532,6.67,70.931,17.932c7.588,3.794,9.425,7.405,3.733,14.688
		c-6.854,8.752-13.158,18.054-18.85,27.602c-4.039,6.854-7.956,7.956-14.382,3.366c-7.65-5.508-14.627-11.567-19.951-19.278
		c-9.058-13.097-19.707-24.603-32.313-34.395c-2.815-2.203-7.65-6.304-7.1-7.527c2.081-4.529,7.161-1.775,11.016-2.326
		C90.393,235.901,92.718,236.207,95.043,236.207L95.043,236.207z"/>
</g>
</svg>
