<?xml version="1.0" encoding="UTF-8" standalone="no"?>
<!DOCTYPE svg PUBLIC "-//W3C//DTD SVG 1.1//EN" "http://www.w3.org/Graphics/SVG/1.1/DTD/svg11.dtd">
<svg version="1.1" xmlns="http://www.w3.org/2000/svg" xmlns:xlink="http://www.w3.org/1999/xlink" preserveAspectRatio="xMidYMid meet" viewBox="0 0 450 60" width="450" height="60"><defs><path d="M6.96 16.08L10.96 16.09L10.91 40.09L6.91 40.08L6.96 16.08Z" id="aBSF3RJpW"></path><path d="M30.96 16.14L46.96 16.17L46.91 40.17L30.91 40.14L30.96 16.14Z" id="l7AQ3JbeP"></path><path d="M82.97 14.26L86.97 14.27L86.9 42.27L82.9 42.26L82.97 14.26Z" id="a1tz4ijYZn"></path><path d="M86.96 16.27L90.96 16.28L90.91 40.28L86.91 40.27L86.96 16.27Z" id="a9Dn54hOzP"></path><path d="M90.97 14.28L94.97 14.29L94.9 42.28L90.9 42.28L90.97 14.28Z" id="a1yBTCZDXO"></path><path d="M94.96 16.29L98.96 16.29L98.9 40.29L94.9 40.28L94.96 16.29Z" id="b1qWEMCCLN"></path><path d="M98.97 14.29L102.97 14.3L102.9 42.3L98.9 42.29L98.97 14.29Z" id="a6nwgtKEo0"></path><path d="M102.96 16.3L106.96 16.31L106.9 40.31L102.9 40.3L102.96 16.3Z" id="b6hMexeLc"></path><path d="M106.97 14.31L110.97 14.32L110.9 42.32L106.9 42.31L106.97 14.31Z" id="g31A1ueVGJ"></path><path d="M110.96 16.32L114.96 16.33L114.9 40.33L110.9 40.32L110.96 16.32Z" id="aSQVhxOO0"></path><path d="M78.96 16.25L82.96 16.26L82.91 40.26L78.91 40.25L78.96 16.25Z" id="a3ioCJ3hpc"></path><path d="M42.96 16.16L70.96 16.23L70.91 40.23L42.91 40.16L42.96 16.16Z" id="aS9hRMKI3"></path><path d="M110.95 20.32L130.95 20.37L130.91 36.37L110.91 36.32L110.95 20.32Z" id="f4fadtMHX"></path><path d="M158.97 12.43L154.97 12.42L154.9 44.42L158.9 44.43L158.97 12.43Z" id="g2kU5JZNsi"></path><path d="M154.96 16.42L142.96 16.4L142.9 40.4L154.9 40.42L154.96 16.42Z" id="aiKI1Ubp4"></path><path d="M142.94 24.4L130.94 24.37L130.92 32.37L142.92 32.4L142.94 24.4Z" id="h2NnOgsqjy"></path><path d="M122.9 40.35L126.9 40.36L126.96 16.36L122.96 16.35L122.9 40.35Z" id="a5Y04xudDG"></path><path d="M126.91 38.36L134.91 38.38L134.96 18.38L126.96 18.36L126.91 38.36Z" id="a2TUVxzNN1"></path><path d="M-127.45 215.52L-107.46 215.29L-107.5 211.29L-127.5 211.52L-127.45 215.52Z" id="d53wxYO5vd"></path><path d="M10.96 16.09L30.96 16.14L30.91 40.14L10.91 40.09L10.96 16.09Z" id="aBm6yL0cy"></path><path d="M10.97 12.09L26.97 12.13L26.95 20.13L10.95 20.09L10.97 12.09Z" id="b1rn7Wi8p9"></path><path d="M10.91 36.09L26.91 36.13L26.9 44.13L10.9 44.09L10.91 36.09Z" id="dg4cwNe3O"></path><path d="M10.94 24.09L26.94 24.13L26.92 32.13L10.92 32.09L10.94 24.09Z" id="b6R6VSIBy"></path><path d="M74.97 14.24L78.97 14.25L78.9 42.25L74.9 42.24L74.97 14.24Z" id="evY2by6aX"></path><path d="M70.96 16.23L74.96 16.24L74.91 40.24L70.91 40.23L70.96 16.23Z" id="h4jsEl6cuC"></path><path d="M330.85 28.99C330.91 25.24 329.56 22.11 327.82 21.99C316.43 21.63 259.48 19.81 156.96 16.55L156.91 40.31L327.79 35.56C329.79 33.58 330.81 31.39 330.85 28.99Z" id="d1v39K3wKs"></path><path d="M453.71 81.32C450.12 81.25 447.11 83.23 447.01 85.77C446.68 102.4 445.05 185.59 442.12 335.34L464.91 335.34L460.02 85.77C458.12 82.85 456.02 81.37 453.71 81.32Z" id="ap8Rh26hV"></path></defs><g visibility="inherit"><g visibility="inherit"><g visibility="inherit"><use xlink:href="#aBSF3RJpW" opacity="1" fill="#bebebe" fill-opacity="1"></use><g><use xlink:href="#aBSF3RJpW" opacity="1" fill-opacity="0" stroke="#000000" stroke-width="1" stroke-opacity="0"></use></g></g><g visibility="inherit"><use xlink:href="#l7AQ3JbeP" opacity="1" fill="#8c8c8c" fill-opacity="1"></use><g><use xlink:href="#l7AQ3JbeP" opacity="1" fill-opacity="0" stroke="#000000" stroke-width="1" stroke-opacity="0"></use></g></g><g visibility="inherit"><use xlink:href="#a1tz4ijYZn" opacity="1" fill="#8c8c8c" fill-opacity="1"></use><g><use xlink:href="#a1tz4ijYZn" opacity="1" fill-opacity="0" stroke="#000000" stroke-width="1" stroke-opacity="0"></use></g></g><g visibility="inherit"><use xlink:href="#a9Dn54hOzP" opacity="1" fill="#323232" fill-opacity="1"></use><g><use xlink:href="#a9Dn54hOzP" opacity="1" fill-opacity="0" stroke="#000000" stroke-width="1" stroke-opacity="0"></use></g></g><g visibility="inherit"><use xlink:href="#a1yBTCZDXO" opacity="1" fill="#8c8c8c" fill-opacity="1"></use><g><use xlink:href="#a1yBTCZDXO" opacity="1" fill-opacity="0" stroke="#000000" stroke-width="1" stroke-opacity="0"></use></g></g><g visibility="inherit"><use xlink:href="#b1qWEMCCLN" opacity="1" fill="#323232" fill-opacity="1"></use><g><use xlink:href="#b1qWEMCCLN" opacity="1" fill-opacity="0" stroke="#000000" stroke-width="1" stroke-opacity="0"></use></g></g><g visibility="inherit"><use xlink:href="#a6nwgtKEo0" opacity="1" fill="#8c8c8c" fill-opacity="1"></use><g><use xlink:href="#a6nwgtKEo0" opacity="1" fill-opacity="0" stroke="#000000" stroke-width="1" stroke-opacity="0"></use></g></g><g visibility="inherit"><use xlink:href="#b6hMexeLc" opacity="1" fill="#323232" fill-opacity="1"></use><g><use xlink:href="#b6hMexeLc" opacity="1" fill-opacity="0" stroke="#000000" stroke-width="1" stroke-opacity="0"></use></g></g><g visibility="inherit"><use xlink:href="#g31A1ueVGJ" opacity="1" fill="#8c8c8c" fill-opacity="1"></use><g><use xlink:href="#g31A1ueVGJ" opacity="1" fill-opacity="0" stroke="#000000" stroke-width="1" stroke-opacity="0"></use></g></g><g visibility="inherit"><use xlink:href="#aSQVhxOO0" opacity="1" fill="#323232" fill-opacity="1"></use><g><use xlink:href="#aSQVhxOO0" opacity="1" fill-opacity="0" stroke="#000000" stroke-width="1" stroke-opacity="0"></use></g></g><g visibility="inherit"><use xlink:href="#a3ioCJ3hpc" opacity="1" fill="#323232" fill-opacity="1"></use><g><use xlink:href="#a3ioCJ3hpc" opacity="1" fill-opacity="0" stroke="#000000" stroke-width="1" stroke-opacity="0"></use></g></g><g visibility="inherit"><use xlink:href="#aS9hRMKI3" opacity="1" fill="#bebebe" fill-opacity="1"></use><g><use xlink:href="#aS9hRMKI3" opacity="1" fill-opacity="0" stroke="#000000" stroke-width="1" stroke-opacity="0"></use></g></g><g visibility="inherit"><use xlink:href="#f4fadtMHX" opacity="1" fill="#323232" fill-opacity="1"></use><g><use xlink:href="#f4fadtMHX" opacity="1" fill-opacity="0" stroke="#000000" stroke-width="1" stroke-opacity="0"></use></g></g><g visibility="inherit"><use xlink:href="#g2kU5JZNsi" opacity="1" fill="#bebebe" fill-opacity="1"></use><g><use xlink:href="#g2kU5JZNsi" opacity="1" fill-opacity="0" stroke="#000000" stroke-width="1" stroke-opacity="0"></use></g></g><g visibility="inherit"><use xlink:href="#aiKI1Ubp4" opacity="1" fill="#bebebe" fill-opacity="1"></use><g><use xlink:href="#aiKI1Ubp4" opacity="1" fill-opacity="0" stroke="#000000" stroke-width="1" stroke-opacity="0"></use></g></g><g visibility="inherit"><use xlink:href="#h2NnOgsqjy" opacity="1" fill="#a57d52" fill-opacity="1"></use><g><use xlink:href="#h2NnOgsqjy" opacity="1" fill-opacity="0" stroke="#000000" stroke-width="1" stroke-opacity="0"></use></g></g><g visibility="inherit"><use xlink:href="#a5Y04xudDG" opacity="1" fill="#bebebe" fill-opacity="1"></use><g><use xlink:href="#a5Y04xudDG" opacity="1" fill-opacity="0" stroke="#000000" stroke-width="1" stroke-opacity="0"></use></g></g><g visibility="inherit"><use xlink:href="#a2TUVxzNN1" opacity="1" fill="#a57d52" fill-opacity="1"></use><g><use xlink:href="#a2TUVxzNN1" opacity="1" fill-opacity="0" stroke="#000000" stroke-width="1" stroke-opacity="0"></use></g></g><g visibility="inherit"><use xlink:href="#d53wxYO5vd" opacity="1" fill="#cbcbcb" fill-opacity="1"></use><g><use xlink:href="#d53wxYO5vd" opacity="1" fill-opacity="0" stroke="#000000" stroke-width="1" stroke-opacity="0"></use></g></g><g visibility="inherit"><use xlink:href="#aBm6yL0cy" opacity="1" fill="#bebebe" fill-opacity="1"></use><g><use xlink:href="#aBm6yL0cy" opacity="1" fill-opacity="0" stroke="#000000" stroke-width="1" stroke-opacity="0"></use></g></g><g visibility="inherit"><use xlink:href="#b1rn7Wi8p9" opacity="1" fill="#8c8c8c" fill-opacity="1"></use><g><use xlink:href="#b1rn7Wi8p9" opacity="1" fill-opacity="0" stroke="#000000" stroke-width="1" stroke-opacity="0"></use></g></g><g visibility="inherit"><use xlink:href="#dg4cwNe3O" opacity="1" fill="#8c8c8c" fill-opacity="1"></use><g><use xlink:href="#dg4cwNe3O" opacity="1" fill-opacity="0" stroke="#000000" stroke-width="1" stroke-opacity="0"></use></g></g><g visibility="inherit"><use xlink:href="#b6R6VSIBy" opacity="1" fill="#8c8c8c" fill-opacity="1"></use><g><use xlink:href="#b6R6VSIBy" opacity="1" fill-opacity="0" stroke="#000000" stroke-width="1" stroke-opacity="0"></use></g></g><g visibility="inherit"><use xlink:href="#evY2by6aX" opacity="1" fill="#8c8c8c" fill-opacity="1"></use><g><use xlink:href="#evY2by6aX" opacity="1" fill-opacity="0" stroke="#000000" stroke-width="1" stroke-opacity="0"></use></g></g><g visibility="inherit"><use xlink:href="#h4jsEl6cuC" opacity="1" fill="#323232" fill-opacity="1"></use><g><use xlink:href="#h4jsEl6cuC" opacity="1" fill-opacity="0" stroke="#000000" stroke-width="1" stroke-opacity="0"></use></g></g><g visibility="inherit"><use xlink:href="#d1v39K3wKs" opacity="1" fill="#ebde28" fill-opacity="1"></use><g><use xlink:href="#d1v39K3wKs" opacity="1" fill-opacity="0" stroke="#000000" stroke-width="1" stroke-opacity="0"></use></g></g><g visibility="inherit"><use xlink:href="#ap8Rh26hV" opacity="1" fill="#faf31a" fill-opacity="1"></use><g><use xlink:href="#ap8Rh26hV" opacity="1" fill-opacity="0" stroke="#000000" stroke-width="1" stroke-opacity="0"></use></g></g></g></g></svg>