<?xml version="1.0" encoding="UTF-8" standalone="no"?>
<!DOCTYPE svg PUBLIC "-//W3C//DTD SVG 1.1//EN" "http://www.w3.org/Graphics/SVG/1.1/DTD/svg11.dtd">
<svg version="1.1" xmlns="http://www.w3.org/2000/svg" xmlns:xlink="http://www.w3.org/1999/xlink" preserveAspectRatio="xMidYMid meet" viewBox="0 0 450 60" width="450" height="60"><defs><path d="M6.96 16.08L10.96 16.09L10.91 40.09L6.91 40.08L6.96 16.08Z" id="a25gN7huMW"></path><path d="M30.96 16.14L46.96 16.17L46.91 40.17L30.91 40.14L30.96 16.14Z" id="cdsURRwl6"></path><path d="M82.97 14.26L86.97 14.27L86.9 42.27L82.9 42.26L82.97 14.26Z" id="b4siTtm3Sr"></path><path d="M86.96 16.27L90.96 16.28L90.91 40.28L86.91 40.27L86.96 16.27Z" id="a3L1GE3ePL"></path><path d="M90.97 14.28L94.97 14.29L94.9 42.28L90.9 42.28L90.97 14.28Z" id="b5z8wYszzH"></path><path d="M94.96 16.29L98.96 16.29L98.9 40.29L94.9 40.28L94.96 16.29Z" id="b4Vc75l3B"></path><path d="M98.97 14.29L102.97 14.3L102.9 42.3L98.9 42.29L98.97 14.29Z" id="h1yOMgemts"></path><path d="M102.96 16.3L106.96 16.31L106.9 40.31L102.9 40.3L102.96 16.3Z" id="epTMWTeyI"></path><path d="M106.97 14.31L110.97 14.32L110.9 42.32L106.9 42.31L106.97 14.31Z" id="bznpfVbAp"></path><path d="M110.96 16.32L114.96 16.33L114.9 40.33L110.9 40.32L110.96 16.32Z" id="c2p7fXNjnY"></path><path d="M78.96 16.25L82.96 16.26L82.91 40.26L78.91 40.25L78.96 16.25Z" id="aDAuIUH7Y"></path><path d="M42.96 16.16L70.96 16.23L70.91 40.23L42.91 40.16L42.96 16.16Z" id="hCnufi9WG"></path><path d="M110.95 20.32L130.95 20.37L130.91 36.37L110.91 36.32L110.95 20.32Z" id="fdUaqtZjI"></path><path d="M158.97 12.43L154.97 12.42L154.9 44.42L158.9 44.43L158.97 12.43Z" id="b1QBj57Utk"></path><path d="M154.96 16.42L142.96 16.4L142.9 40.4L154.9 40.42L154.96 16.42Z" id="c1CYgxpFIJ"></path><path d="M142.94 24.4L130.94 24.37L130.92 32.37L142.92 32.4L142.94 24.4Z" id="hJNWcwRen"></path><path d="M122.9 40.35L126.9 40.36L126.96 16.36L122.96 16.35L122.9 40.35Z" id="a2KcKF2g95"></path><path d="M126.91 38.36L134.91 38.38L134.96 18.38L126.96 18.36L126.91 38.36Z" id="f1p5gmLZY3"></path><path d="M-127.45 215.52L-107.46 215.29L-107.5 211.29L-127.5 211.52L-127.45 215.52Z" id="fKwYZ0Ev5"></path><path d="M10.96 16.09L30.96 16.14L30.91 40.14L10.91 40.09L10.96 16.09Z" id="c2eW9vyLX"></path><path d="M10.97 12.09L26.97 12.13L26.95 20.13L10.95 20.09L10.97 12.09Z" id="b13d5uXbk0"></path><path d="M10.91 36.09L26.91 36.13L26.9 44.13L10.9 44.09L10.91 36.09Z" id="gz5D8IiKp"></path><path d="M10.94 24.09L26.94 24.13L26.92 32.13L10.92 32.09L10.94 24.09Z" id="hIBIQrjO3"></path><path d="M74.97 14.24L78.97 14.25L78.9 42.25L74.9 42.24L74.97 14.24Z" id="anBSTrdJ"></path><path d="M70.96 16.23L74.96 16.24L74.91 40.24L70.91 40.23L70.96 16.23Z" id="e2OnKFbyp3"></path><path d="M239.94 147.71C239.98 143.96 239.26 140.82 238.34 140.71C232.31 140.36 202.15 138.6 147.87 135.43L147.82 159.19L238.32 154.28C239.38 152.3 239.92 150.11 239.94 147.71Z" id="gCiAKReyp"></path><path d="M453.71 81.32C450.12 81.25 447.11 83.23 447.01 85.77C446.68 102.4 445.05 185.59 442.12 335.34L464.91 335.34L460.02 85.77C458.12 82.85 456.02 81.37 453.71 81.32Z" id="b13rw9aJWZ"></path></defs><g visibility="inherit"><g visibility="inherit"><g visibility="inherit"><use xlink:href="#a25gN7huMW" opacity="1" fill="#bebebe" fill-opacity="1"></use><g><use xlink:href="#a25gN7huMW" opacity="1" fill-opacity="0" stroke="#000000" stroke-width="1" stroke-opacity="0"></use></g></g><g visibility="inherit"><use xlink:href="#cdsURRwl6" opacity="1" fill="#8c8c8c" fill-opacity="1"></use><g><use xlink:href="#cdsURRwl6" opacity="1" fill-opacity="0" stroke="#000000" stroke-width="1" stroke-opacity="0"></use></g></g><g visibility="inherit"><use xlink:href="#b4siTtm3Sr" opacity="1" fill="#8c8c8c" fill-opacity="1"></use><g><use xlink:href="#b4siTtm3Sr" opacity="1" fill-opacity="0" stroke="#000000" stroke-width="1" stroke-opacity="0"></use></g></g><g visibility="inherit"><use xlink:href="#a3L1GE3ePL" opacity="1" fill="#323232" fill-opacity="1"></use><g><use xlink:href="#a3L1GE3ePL" opacity="1" fill-opacity="0" stroke="#000000" stroke-width="1" stroke-opacity="0"></use></g></g><g visibility="inherit"><use xlink:href="#b5z8wYszzH" opacity="1" fill="#8c8c8c" fill-opacity="1"></use><g><use xlink:href="#b5z8wYszzH" opacity="1" fill-opacity="0" stroke="#000000" stroke-width="1" stroke-opacity="0"></use></g></g><g visibility="inherit"><use xlink:href="#b4Vc75l3B" opacity="1" fill="#323232" fill-opacity="1"></use><g><use xlink:href="#b4Vc75l3B" opacity="1" fill-opacity="0" stroke="#000000" stroke-width="1" stroke-opacity="0"></use></g></g><g visibility="inherit"><use xlink:href="#h1yOMgemts" opacity="1" fill="#8c8c8c" fill-opacity="1"></use><g><use xlink:href="#h1yOMgemts" opacity="1" fill-opacity="0" stroke="#000000" stroke-width="1" stroke-opacity="0"></use></g></g><g visibility="inherit"><use xlink:href="#epTMWTeyI" opacity="1" fill="#323232" fill-opacity="1"></use><g><use xlink:href="#epTMWTeyI" opacity="1" fill-opacity="0" stroke="#000000" stroke-width="1" stroke-opacity="0"></use></g></g><g visibility="inherit"><use xlink:href="#bznpfVbAp" opacity="1" fill="#8c8c8c" fill-opacity="1"></use><g><use xlink:href="#bznpfVbAp" opacity="1" fill-opacity="0" stroke="#000000" stroke-width="1" stroke-opacity="0"></use></g></g><g visibility="inherit"><use xlink:href="#c2p7fXNjnY" opacity="1" fill="#323232" fill-opacity="1"></use><g><use xlink:href="#c2p7fXNjnY" opacity="1" fill-opacity="0" stroke="#000000" stroke-width="1" stroke-opacity="0"></use></g></g><g visibility="inherit"><use xlink:href="#aDAuIUH7Y" opacity="1" fill="#323232" fill-opacity="1"></use><g><use xlink:href="#aDAuIUH7Y" opacity="1" fill-opacity="0" stroke="#000000" stroke-width="1" stroke-opacity="0"></use></g></g><g visibility="inherit"><use xlink:href="#hCnufi9WG" opacity="1" fill="#bebebe" fill-opacity="1"></use><g><use xlink:href="#hCnufi9WG" opacity="1" fill-opacity="0" stroke="#000000" stroke-width="1" stroke-opacity="0"></use></g></g><g visibility="inherit"><use xlink:href="#fdUaqtZjI" opacity="1" fill="#323232" fill-opacity="1"></use><g><use xlink:href="#fdUaqtZjI" opacity="1" fill-opacity="0" stroke="#000000" stroke-width="1" stroke-opacity="0"></use></g></g><g visibility="inherit"><use xlink:href="#b1QBj57Utk" opacity="1" fill="#bebebe" fill-opacity="1"></use><g><use xlink:href="#b1QBj57Utk" opacity="1" fill-opacity="0" stroke="#000000" stroke-width="1" stroke-opacity="0"></use></g></g><g visibility="inherit"><use xlink:href="#c1CYgxpFIJ" opacity="1" fill="#bebebe" fill-opacity="1"></use><g><use xlink:href="#c1CYgxpFIJ" opacity="1" fill-opacity="0" stroke="#000000" stroke-width="1" stroke-opacity="0"></use></g></g><g visibility="inherit"><use xlink:href="#hJNWcwRen" opacity="1" fill="#a57d52" fill-opacity="1"></use><g><use xlink:href="#hJNWcwRen" opacity="1" fill-opacity="0" stroke="#000000" stroke-width="1" stroke-opacity="0"></use></g></g><g visibility="inherit"><use xlink:href="#a2KcKF2g95" opacity="1" fill="#bebebe" fill-opacity="1"></use><g><use xlink:href="#a2KcKF2g95" opacity="1" fill-opacity="0" stroke="#000000" stroke-width="1" stroke-opacity="0"></use></g></g><g visibility="inherit"><use xlink:href="#f1p5gmLZY3" opacity="1" fill="#a57d52" fill-opacity="1"></use><g><use xlink:href="#f1p5gmLZY3" opacity="1" fill-opacity="0" stroke="#000000" stroke-width="1" stroke-opacity="0"></use></g></g><g visibility="inherit"><use xlink:href="#fKwYZ0Ev5" opacity="1" fill="#cbcbcb" fill-opacity="1"></use><g><use xlink:href="#fKwYZ0Ev5" opacity="1" fill-opacity="0" stroke="#000000" stroke-width="1" stroke-opacity="0"></use></g></g><g visibility="inherit"><use xlink:href="#c2eW9vyLX" opacity="1" fill="#bebebe" fill-opacity="1"></use><g><use xlink:href="#c2eW9vyLX" opacity="1" fill-opacity="0" stroke="#000000" stroke-width="1" stroke-opacity="0"></use></g></g><g visibility="inherit"><use xlink:href="#b13d5uXbk0" opacity="1" fill="#8c8c8c" fill-opacity="1"></use><g><use xlink:href="#b13d5uXbk0" opacity="1" fill-opacity="0" stroke="#000000" stroke-width="1" stroke-opacity="0"></use></g></g><g visibility="inherit"><use xlink:href="#gz5D8IiKp" opacity="1" fill="#8c8c8c" fill-opacity="1"></use><g><use xlink:href="#gz5D8IiKp" opacity="1" fill-opacity="0" stroke="#000000" stroke-width="1" stroke-opacity="0"></use></g></g><g visibility="inherit"><use xlink:href="#hIBIQrjO3" opacity="1" fill="#8c8c8c" fill-opacity="1"></use><g><use xlink:href="#hIBIQrjO3" opacity="1" fill-opacity="0" stroke="#000000" stroke-width="1" stroke-opacity="0"></use></g></g><g visibility="inherit"><use xlink:href="#anBSTrdJ" opacity="1" fill="#8c8c8c" fill-opacity="1"></use><g><use xlink:href="#anBSTrdJ" opacity="1" fill-opacity="0" stroke="#000000" stroke-width="1" stroke-opacity="0"></use></g></g><g visibility="inherit"><use xlink:href="#e2OnKFbyp3" opacity="1" fill="#323232" fill-opacity="1"></use><g><use xlink:href="#e2OnKFbyp3" opacity="1" fill-opacity="0" stroke="#000000" stroke-width="1" stroke-opacity="0"></use></g></g><g visibility="inherit"><use xlink:href="#gCiAKReyp" opacity="1" fill="#e61a0f" fill-opacity="1"></use><g><use xlink:href="#gCiAKReyp" opacity="1" fill-opacity="0" stroke="#000000" stroke-width="1" stroke-opacity="0"></use></g></g><g visibility="inherit"><use xlink:href="#b13rw9aJWZ" opacity="1" fill="#faf31a" fill-opacity="1"></use><g><use xlink:href="#b13rw9aJWZ" opacity="1" fill-opacity="0" stroke="#000000" stroke-width="1" stroke-opacity="0"></use></g></g></g></g></svg>