<?xml version="1.0" encoding="UTF-8" standalone="no"?>
<!DOCTYPE svg PUBLIC "-//W3C//DTD SVG 1.1//EN" "http://www.w3.org/Graphics/SVG/1.1/DTD/svg11.dtd">
<svg version="1.1" xmlns="http://www.w3.org/2000/svg" xmlns:xlink="http://www.w3.org/1999/xlink" preserveAspectRatio="xMidYMid meet" viewBox="0 0 280 60" width="280" height="60"><defs><path d="M-167.45 215.97L-163.45 215.92L-163.18 239.92L-167.18 239.97L-167.45 215.97Z" id="a1xiQ2jpec"></path><path d="M-143.45 215.7L-127.45 215.52L-127.18 239.51L-143.18 239.7L-143.45 215.7Z" id="a1hXTl6N5U"></path><path d="M-91.48 213.11L-87.48 213.07L-87.16 241.06L-91.16 241.11L-91.48 213.11Z" id="b9arnHCB6"></path><path d="M-87.46 215.07L-83.46 215.02L-83.19 239.02L-87.19 239.06L-87.46 215.07Z" id="admakuVMF"></path><path d="M-83.48 213.02L-79.48 212.98L-79.16 240.97L-83.16 241.02L-83.48 213.02Z" id="akaCNGFBT"></path><path d="M-79.46 214.98L-75.46 214.93L-75.19 238.93L-79.19 238.97L-79.46 214.98Z" id="bh5S2CsnZ"></path><path d="M-75.48 212.93L-71.48 212.89L-71.16 240.88L-75.16 240.93L-75.48 212.93Z" id="a6x15tOt5"></path><path d="M-71.46 214.89L-67.46 214.84L-67.19 238.84L-71.19 238.88L-71.46 214.89Z" id="b14W0tQKB0"></path><path d="M-67.48 212.84L-63.48 212.8L-63.17 240.79L-67.16 240.84L-67.48 212.84Z" id="a1D1vDRvlc"></path><path d="M-63.46 214.8L-59.46 214.75L-59.19 238.75L-63.19 238.79L-63.46 214.8Z" id="a1gwB8dqHg"></path><path d="M-95.46 215.16L-91.46 215.11L-91.19 239.11L-95.19 239.15L-95.46 215.16Z" id="g4JpWpJew"></path><path d="M-131.45 215.56L-103.46 215.25L-103.19 239.24L-131.18 239.56L-131.45 215.56Z" id="f7Ie73kLV"></path><path d="M-63.41 218.79L-43.41 218.57L-43.23 234.57L-63.23 234.79L-63.41 218.79Z" id="a6TxgcDNxN"></path><path d="M-15.51 210.25L-19.51 210.3L-19.15 242.3L-15.15 242.25L-15.51 210.25Z" id="cb79DGvhus"></path><path d="M-19.46 214.3L-31.46 214.43L-31.19 238.43L-19.19 238.3L-19.46 214.3Z" id="h1nn9CjEt3"></path><path d="M-31.37 222.43L-43.37 222.57L-43.28 230.57L-31.28 230.43L-31.37 222.43Z" id="dfMY1KMmT"></path><path d="M-51.19 238.66L-47.19 238.61L-47.46 214.61L-51.46 214.66L-51.19 238.66Z" id="f1WA2IRDOL"></path><path d="M-47.21 236.61L-39.21 236.52L-39.44 216.52L-47.44 216.61L-47.21 236.61Z" id="f8Lzc0WvN"></path><path d="M-127.45 215.52L-107.46 215.29L-107.5 211.29L-127.5 211.52L-127.45 215.52Z" id="d53wxYO5vd"></path><path d="M-163.45 215.92L-143.45 215.7L-143.18 239.7L-163.18 239.92L-163.45 215.92Z" id="a23j6ORV0h"></path><path d="M-163.5 211.92L-147.5 211.74L-147.41 219.74L-163.41 219.92L-163.5 211.92Z" id="a3gtJiun6b"></path><path d="M-163.23 235.92L-147.23 235.74L-147.14 243.74L-163.14 243.92L-163.23 235.92Z" id="i7LeIOplL"></path><path d="M-163.36 223.92L-147.36 223.74L-147.27 231.74L-163.27 231.92L-163.36 223.92Z" id="cZkgbrHr"></path><path d="M-99.48 213.2L-95.48 213.16L-95.16 241.15L-99.16 241.2L-99.48 213.2Z" id="d8AV71AL7"></path><path d="M-103.46 215.25L-99.46 215.2L-99.19 239.2L-103.19 239.24L-103.46 215.25Z" id="ekRXQmow"></path><path d="M261.77 30.23C261.8 26.48 259.72 23.37 257.11 23.29C239.96 23.15 154.21 22.44 -0.14 21.17L0.14 44.93L257.27 36.86C260.24 34.84 261.74 32.63 261.77 30.23Z" id="aqnjQbmqX"></path><path d="M453.71 81.32C450.12 81.25 447.11 83.23 447.01 85.77C446.68 102.4 445.05 185.59 442.12 335.34L464.91 335.34L460.02 85.77C458.12 82.85 456.02 81.37 453.71 81.32Z" id="ap8Rh26hV"></path></defs><g visibility="inherit"><g visibility="inherit"><g visibility="inherit"><use xlink:href="#a1xiQ2jpec" opacity="1" fill="#bebebe" fill-opacity="1"></use><g><use xlink:href="#a1xiQ2jpec" opacity="1" fill-opacity="0" stroke="#000000" stroke-width="1" stroke-opacity="0"></use></g></g><g visibility="inherit"><use xlink:href="#a1hXTl6N5U" opacity="1" fill="#8c8c8c" fill-opacity="1"></use><g><use xlink:href="#a1hXTl6N5U" opacity="1" fill-opacity="0" stroke="#000000" stroke-width="1" stroke-opacity="0"></use></g></g><g visibility="inherit"><use xlink:href="#b9arnHCB6" opacity="1" fill="#8c8c8c" fill-opacity="1"></use><g><use xlink:href="#b9arnHCB6" opacity="1" fill-opacity="0" stroke="#000000" stroke-width="1" stroke-opacity="0"></use></g></g><g visibility="inherit"><use xlink:href="#admakuVMF" opacity="1" fill="#323232" fill-opacity="1"></use><g><use xlink:href="#admakuVMF" opacity="1" fill-opacity="0" stroke="#000000" stroke-width="1" stroke-opacity="0"></use></g></g><g visibility="inherit"><use xlink:href="#akaCNGFBT" opacity="1" fill="#8c8c8c" fill-opacity="1"></use><g><use xlink:href="#akaCNGFBT" opacity="1" fill-opacity="0" stroke="#000000" stroke-width="1" stroke-opacity="0"></use></g></g><g visibility="inherit"><use xlink:href="#bh5S2CsnZ" opacity="1" fill="#323232" fill-opacity="1"></use><g><use xlink:href="#bh5S2CsnZ" opacity="1" fill-opacity="0" stroke="#000000" stroke-width="1" stroke-opacity="0"></use></g></g><g visibility="inherit"><use xlink:href="#a6x15tOt5" opacity="1" fill="#8c8c8c" fill-opacity="1"></use><g><use xlink:href="#a6x15tOt5" opacity="1" fill-opacity="0" stroke="#000000" stroke-width="1" stroke-opacity="0"></use></g></g><g visibility="inherit"><use xlink:href="#b14W0tQKB0" opacity="1" fill="#323232" fill-opacity="1"></use><g><use xlink:href="#b14W0tQKB0" opacity="1" fill-opacity="0" stroke="#000000" stroke-width="1" stroke-opacity="0"></use></g></g><g visibility="inherit"><use xlink:href="#a1D1vDRvlc" opacity="1" fill="#8c8c8c" fill-opacity="1"></use><g><use xlink:href="#a1D1vDRvlc" opacity="1" fill-opacity="0" stroke="#000000" stroke-width="1" stroke-opacity="0"></use></g></g><g visibility="inherit"><use xlink:href="#a1gwB8dqHg" opacity="1" fill="#323232" fill-opacity="1"></use><g><use xlink:href="#a1gwB8dqHg" opacity="1" fill-opacity="0" stroke="#000000" stroke-width="1" stroke-opacity="0"></use></g></g><g visibility="inherit"><use xlink:href="#g4JpWpJew" opacity="1" fill="#323232" fill-opacity="1"></use><g><use xlink:href="#g4JpWpJew" opacity="1" fill-opacity="0" stroke="#000000" stroke-width="1" stroke-opacity="0"></use></g></g><g visibility="inherit"><use xlink:href="#f7Ie73kLV" opacity="1" fill="#bebebe" fill-opacity="1"></use><g><use xlink:href="#f7Ie73kLV" opacity="1" fill-opacity="0" stroke="#000000" stroke-width="1" stroke-opacity="0"></use></g></g><g visibility="inherit"><use xlink:href="#a6TxgcDNxN" opacity="1" fill="#323232" fill-opacity="1"></use><g><use xlink:href="#a6TxgcDNxN" opacity="1" fill-opacity="0" stroke="#000000" stroke-width="1" stroke-opacity="0"></use></g></g><g visibility="inherit"><use xlink:href="#cb79DGvhus" opacity="1" fill="#bebebe" fill-opacity="1"></use><g><use xlink:href="#cb79DGvhus" opacity="1" fill-opacity="0" stroke="#000000" stroke-width="1" stroke-opacity="0"></use></g></g><g visibility="inherit"><use xlink:href="#h1nn9CjEt3" opacity="1" fill="#bebebe" fill-opacity="1"></use><g><use xlink:href="#h1nn9CjEt3" opacity="1" fill-opacity="0" stroke="#000000" stroke-width="1" stroke-opacity="0"></use></g></g><g visibility="inherit"><use xlink:href="#dfMY1KMmT" opacity="1" fill="#a57d52" fill-opacity="1"></use><g><use xlink:href="#dfMY1KMmT" opacity="1" fill-opacity="0" stroke="#000000" stroke-width="1" stroke-opacity="0"></use></g></g><g visibility="inherit"><use xlink:href="#f1WA2IRDOL" opacity="1" fill="#bebebe" fill-opacity="1"></use><g><use xlink:href="#f1WA2IRDOL" opacity="1" fill-opacity="0" stroke="#000000" stroke-width="1" stroke-opacity="0"></use></g></g><g visibility="inherit"><use xlink:href="#f8Lzc0WvN" opacity="1" fill="#a57d52" fill-opacity="1"></use><g><use xlink:href="#f8Lzc0WvN" opacity="1" fill-opacity="0" stroke="#000000" stroke-width="1" stroke-opacity="0"></use></g></g><g visibility="inherit"><use xlink:href="#d53wxYO5vd" opacity="1" fill="#cbcbcb" fill-opacity="1"></use><g><use xlink:href="#d53wxYO5vd" opacity="1" fill-opacity="0" stroke="#000000" stroke-width="1" stroke-opacity="0"></use></g></g><g visibility="inherit"><use xlink:href="#a23j6ORV0h" opacity="1" fill="#bebebe" fill-opacity="1"></use><g><use xlink:href="#a23j6ORV0h" opacity="1" fill-opacity="0" stroke="#000000" stroke-width="1" stroke-opacity="0"></use></g></g><g visibility="inherit"><use xlink:href="#a3gtJiun6b" opacity="1" fill="#8c8c8c" fill-opacity="1"></use><g><use xlink:href="#a3gtJiun6b" opacity="1" fill-opacity="0" stroke="#000000" stroke-width="1" stroke-opacity="0"></use></g></g><g visibility="inherit"><use xlink:href="#i7LeIOplL" opacity="1" fill="#8c8c8c" fill-opacity="1"></use><g><use xlink:href="#i7LeIOplL" opacity="1" fill-opacity="0" stroke="#000000" stroke-width="1" stroke-opacity="0"></use></g></g><g visibility="inherit"><use xlink:href="#cZkgbrHr" opacity="1" fill="#8c8c8c" fill-opacity="1"></use><g><use xlink:href="#cZkgbrHr" opacity="1" fill-opacity="0" stroke="#000000" stroke-width="1" stroke-opacity="0"></use></g></g><g visibility="inherit"><use xlink:href="#d8AV71AL7" opacity="1" fill="#8c8c8c" fill-opacity="1"></use><g><use xlink:href="#d8AV71AL7" opacity="1" fill-opacity="0" stroke="#000000" stroke-width="1" stroke-opacity="0"></use></g></g><g visibility="inherit"><use xlink:href="#ekRXQmow" opacity="1" fill="#323232" fill-opacity="1"></use><g><use xlink:href="#ekRXQmow" opacity="1" fill-opacity="0" stroke="#000000" stroke-width="1" stroke-opacity="0"></use></g></g><g visibility="inherit"><use xlink:href="#aqnjQbmqX" opacity="1" fill="#8cbe3c" fill-opacity="1"></use><g><use xlink:href="#aqnjQbmqX" opacity="1" fill-opacity="0" stroke="#000000" stroke-width="1" stroke-opacity="0"></use></g></g><g visibility="inherit"><use xlink:href="#ap8Rh26hV" opacity="1" fill="#faf31a" fill-opacity="1"></use><g><use xlink:href="#ap8Rh26hV" opacity="1" fill-opacity="0" stroke="#000000" stroke-width="1" stroke-opacity="0"></use></g></g></g></g></svg>