<?xml version="1.0" encoding="utf-8"?>
<!-- Generator: Adobe Illustrator 16.0.0, SVG Export Plug-In . SVG Version: 6.00 Build 0)  -->
<!DOCTYPE svg PUBLIC "-//W3C//DTD SVG 1.1//EN" "http://www.w3.org/Graphics/SVG/1.1/DTD/svg11.dtd">
<svg version="1.1" id="Logo" xmlns="http://www.w3.org/2000/svg" xmlns:xlink="http://www.w3.org/1999/xlink" x="0px" y="0px"
	 width="800px" height="800px" viewBox="0 0 800 800" enable-background="new 0 0 800 800" xml:space="preserve">
<g>
	<g display="none">
		<g display="inline">
			<path fill="#636466" d="M188.702,342.447c-1.133,0-2.01,0.426-2.632,1.277c-0.622,0.852-0.933,2.038-0.933,3.559
				c0,3.166,1.188,4.749,3.564,4.749c0.997,0,2.204-0.25,3.622-0.748v2.525c-1.165,0.486-2.466,0.729-3.904,0.729
				c-2.065,0-3.645-0.626-4.739-1.879c-1.094-1.253-1.641-3.051-1.641-5.395c0-1.476,0.269-2.77,0.806-3.88
				c0.537-1.11,1.309-1.961,2.316-2.554s2.187-0.889,3.54-0.889c1.379,0,2.764,0.333,4.156,1l-0.971,2.447
				c-0.531-0.252-1.065-0.472-1.603-0.66C189.748,342.542,189.22,342.447,188.702,342.447z"/>
			<path fill="#636466" d="M201.171,343.283c0.401,0,0.735,0.029,1,0.087l-0.223,2.777c-0.24-0.065-0.531-0.097-0.874-0.097
				c-0.945,0-1.682,0.243-2.209,0.728c-0.527,0.486-0.791,1.166-0.791,2.04v5.525h-2.962v-10.857h2.243l0.437,1.826h0.146
				c0.336-0.608,0.792-1.099,1.365-1.471C199.875,343.469,200.497,343.283,201.171,343.283z"/>
			<path fill="#636466" d="M209.056,354.538c-1.748,0-3.114-0.482-4.098-1.447c-0.984-0.965-1.476-2.331-1.476-4.098
				c0-1.819,0.455-3.226,1.365-4.22c0.909-0.994,2.167-1.49,3.772-1.49c1.535,0,2.729,0.437,3.583,1.311
				c0.854,0.875,1.282,2.082,1.282,3.623v1.437h-7.001c0.032,0.842,0.282,1.499,0.748,1.971c0.466,0.473,1.12,0.709,1.961,0.709
				c0.654,0,1.272-0.068,1.855-0.204c0.583-0.136,1.191-0.353,1.826-0.651v2.292c-0.519,0.259-1.072,0.452-1.661,0.578
				C210.623,354.475,209.904,354.538,209.056,354.538z M208.639,345.39c-0.628,0-1.12,0.199-1.476,0.597
				c-0.356,0.398-0.56,0.963-0.612,1.694h4.156c-0.013-0.731-0.204-1.296-0.573-1.694
				C209.765,345.589,209.267,345.39,208.639,345.39z"/>
			<path fill="#636466" d="M222.788,354.343l-0.573-1.476h-0.078c-0.499,0.628-1.012,1.063-1.539,1.306
				c-0.528,0.243-1.216,0.364-2.064,0.364c-1.042,0-1.863-0.298-2.462-0.894c-0.599-0.595-0.898-1.443-0.898-2.544
				c0-1.152,0.403-2.002,1.209-2.549s2.021-0.85,3.646-0.908l1.884-0.058v-0.476c0-1.1-0.563-1.65-1.689-1.65
				c-0.868,0-1.887,0.262-3.059,0.787l-0.98-2.001c1.249-0.654,2.635-0.98,4.156-0.98c1.457,0,2.573,0.317,3.35,0.952
				s1.166,1.599,1.166,2.894v7.235H222.788z M221.914,349.313l-1.146,0.039c-0.861,0.026-1.502,0.181-1.923,0.466
				c-0.421,0.285-0.631,0.719-0.631,1.301c0,0.835,0.479,1.253,1.437,1.253c0.686,0,1.235-0.198,1.646-0.592
				c0.411-0.395,0.616-0.919,0.616-1.573V349.313z"/>
			<path fill="#636466" d="M232.479,352.178c0.518,0,1.139-0.113,1.865-0.34v2.205c-0.738,0.33-1.645,0.495-2.719,0.495
				c-1.185,0-2.048-0.299-2.588-0.898c-0.541-0.599-0.811-1.497-0.811-2.695v-5.234h-1.418v-1.253l1.631-0.991l0.854-2.292h1.894
				v2.311h3.039v2.224h-3.039v5.234c0,0.421,0.118,0.732,0.354,0.932C231.779,352.078,232.091,352.178,232.479,352.178z"/>
			<path fill="#636466" d="M236.413,340.68c0-0.964,0.537-1.447,1.612-1.447s1.612,0.482,1.612,1.447
				c0,0.46-0.134,0.817-0.403,1.073s-0.671,0.383-1.209,0.383C236.95,342.136,236.413,341.651,236.413,340.68z M239.5,354.343
				h-2.962v-10.857h2.962V354.343z"/>
			<path fill="#636466" d="M245.191,354.343l-4.137-10.857h3.098l2.098,6.186c0.233,0.783,0.379,1.524,0.437,2.224h0.059
				c0.032-0.622,0.178-1.362,0.437-2.224l2.088-6.186h3.098l-4.137,10.857H245.191z"/>
			<path fill="#636466" d="M258.835,354.538c-1.748,0-3.114-0.482-4.098-1.447c-0.984-0.965-1.476-2.331-1.476-4.098
				c0-1.819,0.455-3.226,1.364-4.22c0.91-0.994,2.167-1.49,3.773-1.49c1.534,0,2.729,0.437,3.583,1.311
				c0.854,0.875,1.282,2.082,1.282,3.623v1.437h-7.002c0.033,0.842,0.282,1.499,0.748,1.971c0.466,0.473,1.12,0.709,1.961,0.709
				c0.654,0,1.272-0.068,1.855-0.204s1.191-0.353,1.826-0.651v2.292c-0.518,0.259-1.071,0.452-1.661,0.578
				C260.402,354.475,259.684,354.538,258.835,354.538z M258.418,345.39c-0.628,0-1.12,0.199-1.477,0.597
				c-0.356,0.398-0.56,0.963-0.611,1.694h4.156c-0.013-0.731-0.204-1.296-0.573-1.694
				C259.544,345.589,259.046,345.39,258.418,345.39z"/>
			<path fill="#F0AF13" d="M272.188,340.835c-1.78,0-3.182,0.569-4.205,1.709s-1.534,2.7-1.534,4.681c0,2.026,0.482,3.6,1.447,4.72
				c0.965,1.12,2.344,1.68,4.137,1.68c1.191,0,2.285-0.152,3.282-0.457v0.874c-0.939,0.33-2.11,0.495-3.516,0.495
				c-1.994,0-3.564-0.644-4.709-1.933c-1.146-1.288-1.719-3.088-1.719-5.399c0-1.443,0.273-2.716,0.82-3.816
				c0.547-1.1,1.333-1.95,2.36-2.549c1.026-0.599,2.219-0.898,3.578-0.898c1.386,0,2.625,0.259,3.72,0.777l-0.398,0.894
				C274.415,341.094,273.328,340.835,272.188,340.835z"/>
			<path fill="#F0AF13" d="M286.968,349.051c0,1.722-0.418,3.067-1.253,4.035c-0.835,0.968-1.987,1.452-3.457,1.452
				c-0.926,0-1.742-0.223-2.447-0.67s-1.246-1.088-1.622-1.923c-0.375-0.835-0.563-1.8-0.563-2.894c0-1.722,0.417-3.063,1.253-4.025
				c0.835-0.961,1.981-1.442,3.438-1.442c1.45,0,2.588,0.487,3.414,1.462C286.556,346.02,286.968,347.354,286.968,349.051z
				 M278.636,349.051c0,1.45,0.318,2.582,0.956,3.394c0.638,0.812,1.54,1.219,2.705,1.219c1.166,0,2.067-0.406,2.705-1.219
				c0.638-0.812,0.957-1.944,0.957-3.394c0-1.457-0.322-2.586-0.966-3.389c-0.645-0.802-1.549-1.204-2.714-1.204
				s-2.063,0.4-2.695,1.199C278.952,346.457,278.636,347.588,278.636,349.051z"/>
			<path fill="#F0AF13" d="M297.252,354.343v-6.846c0-1.062-0.223-1.833-0.67-2.316c-0.447-0.482-1.14-0.723-2.079-0.723
				c-1.262,0-2.186,0.319-2.772,0.957c-0.586,0.638-0.879,1.672-0.879,3.103v5.826h-0.961v-10.556h0.815l0.185,1.447h0.058
				c0.687-1.101,1.907-1.651,3.661-1.651c2.396,0,3.593,1.285,3.593,3.855v6.904H297.252z"/>
			<path fill="#F0AF13" d="M308.983,354.343v-6.846c0-1.062-0.223-1.833-0.67-2.316c-0.447-0.482-1.14-0.723-2.079-0.723
				c-1.262,0-2.186,0.319-2.772,0.957c-0.586,0.638-0.879,1.672-0.879,3.103v5.826h-0.961v-10.556h0.816l0.185,1.447h0.058
				c0.687-1.101,1.907-1.651,3.662-1.651c2.395,0,3.593,1.285,3.593,3.855v6.904H308.983z"/>
			<path fill="#F0AF13" d="M317.617,354.538c-1.535,0-2.73-0.473-3.588-1.418s-1.287-2.269-1.287-3.972
				c0-1.683,0.415-3.031,1.243-4.045c0.829-1.013,1.945-1.52,3.35-1.52c1.243,0,2.224,0.434,2.943,1.301
				c0.718,0.868,1.078,2.046,1.078,3.535v0.777h-7.604c0.013,1.45,0.351,2.557,1.015,3.321c0.664,0.764,1.614,1.146,2.85,1.146
				c0.602,0,1.131-0.042,1.588-0.126c0.457-0.084,1.034-0.266,1.733-0.544v0.874c-0.596,0.259-1.146,0.436-1.651,0.529
				C318.782,354.491,318.225,354.538,317.617,354.538z M317.335,344.438c-1.016,0-1.832,0.335-2.447,1.005
				c-0.615,0.67-0.974,1.637-1.078,2.899h6.526c0-1.224-0.266-2.18-0.796-2.869C319.008,344.783,318.274,344.438,317.335,344.438z"
				/>
			<path fill="#F0AF13" d="M328.483,354.538c-1.509,0-2.69-0.476-3.545-1.427s-1.282-2.279-1.282-3.982
				c0-1.748,0.443-3.109,1.331-4.083c0.887-0.975,2.101-1.462,3.642-1.462c0.913,0,1.787,0.159,2.622,0.476l-0.262,0.854
				c-0.913-0.304-1.706-0.457-2.379-0.457c-1.295,0-2.276,0.4-2.942,1.199c-0.667,0.8-1,1.951-1,3.453c0,1.424,0.333,2.539,1,3.345
				c0.667,0.806,1.599,1.209,2.797,1.209c0.958,0,1.848-0.171,2.67-0.515v0.894C330.461,354.373,329.577,354.538,328.483,354.538z"
				/>
			<path fill="#F0AF13" d="M336.504,353.683c0.608,0,1.14-0.052,1.593-0.155v0.777c-0.466,0.155-1.003,0.233-1.612,0.233
				c-0.932,0-1.62-0.249-2.063-0.748s-0.665-1.282-0.665-2.35v-6.817h-1.563v-0.563l1.563-0.437l0.486-2.389h0.495v2.554h3.098
				v0.835h-3.098v6.681c0,0.81,0.142,1.408,0.427,1.797C335.449,353.489,335.896,353.683,336.504,353.683z"/>
		</g>
		<g display="inline">
			<path fill="#636466" d="M188.92,360.004l1.377-2.582h0.649l-1.723,3.161v2.002h-0.607v-1.974l-1.72-3.189h0.657L188.92,360.004z"
				/>
			<path fill="#636466" d="M196.27,360.646c0,0.631-0.159,1.124-0.477,1.478c-0.318,0.354-0.757,0.531-1.318,0.531
				c-0.346,0-0.653-0.081-0.921-0.244c-0.268-0.162-0.476-0.396-0.622-0.699c-0.146-0.303-0.219-0.659-0.219-1.066
				c0-0.631,0.158-1.122,0.473-1.474s0.753-0.528,1.313-0.528c0.542,0,0.972,0.18,1.291,0.54
				C196.11,359.545,196.27,360.032,196.27,360.646z M193.321,360.646c0,0.495,0.099,0.872,0.296,1.13
				c0.198,0.259,0.489,0.389,0.873,0.389c0.383,0,0.675-0.128,0.874-0.387c0.199-0.258,0.299-0.635,0.299-1.132
				c0-0.492-0.1-0.866-0.299-1.121c-0.199-0.255-0.492-0.383-0.881-0.383c-0.384,0-0.673,0.125-0.869,0.378
				C193.418,359.772,193.321,360.147,193.321,360.646z"/>
			<path fill="#636466" d="M199.208,358.715v2.511c0,0.315,0.072,0.55,0.215,0.706c0.144,0.155,0.369,0.233,0.674,0.233
				c0.405,0,0.701-0.11,0.888-0.332c0.187-0.221,0.281-0.583,0.281-1.084v-2.034h0.586v3.871h-0.483l-0.085-0.52h-0.032
				c-0.12,0.191-0.287,0.337-0.5,0.438c-0.213,0.101-0.456,0.151-0.729,0.151c-0.471,0-0.824-0.112-1.058-0.335
				c-0.234-0.224-0.351-0.582-0.351-1.074v-2.532H199.208z"/>
			<path fill="#636466" d="M206.221,358.645c0.172,0,0.326,0.014,0.462,0.042l-0.081,0.544c-0.16-0.035-0.301-0.053-0.424-0.053
				c-0.313,0-0.581,0.127-0.803,0.381c-0.223,0.254-0.333,0.571-0.333,0.95v2.077h-0.586v-3.871h0.484l0.067,0.717h0.028
				c0.144-0.251,0.316-0.446,0.519-0.583S205.979,358.645,206.221,358.645z"/>
			<path fill="#636466" d="M212.093,357.422h1.458c0.685,0,1.181,0.103,1.487,0.308c0.306,0.205,0.459,0.528,0.459,0.971
				c0,0.306-0.085,0.559-0.256,0.758c-0.171,0.199-0.42,0.328-0.747,0.387v0.035c0.784,0.134,1.176,0.546,1.176,1.236
				c0,0.461-0.156,0.821-0.468,1.08c-0.312,0.259-0.748,0.389-1.308,0.389h-1.801V357.422z M212.694,359.633h0.989
				c0.424,0,0.729-0.066,0.914-0.2c0.186-0.133,0.279-0.357,0.279-0.673c0-0.29-0.104-0.498-0.311-0.627
				c-0.207-0.128-0.537-0.192-0.988-0.192h-0.883V359.633z M212.694,360.142v1.932h1.077c0.417,0,0.73-0.081,0.941-0.242
				c0.21-0.161,0.316-0.414,0.316-0.758c0-0.32-0.108-0.556-0.323-0.706s-0.543-0.226-0.983-0.226H212.694z"/>
			<path fill="#636466" d="M218.602,358.715v2.511c0,0.315,0.072,0.55,0.216,0.706c0.143,0.155,0.368,0.233,0.674,0.233
				c0.405,0,0.701-0.11,0.888-0.332c0.187-0.221,0.281-0.583,0.281-1.084v-2.034h0.586v3.871h-0.483l-0.085-0.52h-0.032
				c-0.12,0.191-0.286,0.337-0.5,0.438c-0.213,0.101-0.456,0.151-0.729,0.151c-0.471,0-0.823-0.112-1.058-0.335
				c-0.234-0.224-0.352-0.582-0.352-1.074v-2.532H218.602z"/>
			<path fill="#636466" d="M226.346,361.529c0,0.36-0.134,0.638-0.402,0.833c-0.269,0.196-0.645,0.293-1.13,0.293
				c-0.514,0-0.914-0.081-1.201-0.244v-0.543c0.186,0.094,0.385,0.168,0.599,0.222c0.213,0.054,0.418,0.081,0.616,0.081
				c0.307,0,0.542-0.048,0.707-0.146c0.165-0.097,0.247-0.246,0.247-0.446c0-0.151-0.065-0.28-0.196-0.387
				c-0.131-0.107-0.386-0.233-0.765-0.38c-0.36-0.134-0.616-0.251-0.768-0.351c-0.152-0.1-0.265-0.214-0.339-0.341
				c-0.074-0.127-0.111-0.278-0.111-0.455c0-0.316,0.128-0.564,0.385-0.747c0.256-0.183,0.608-0.274,1.055-0.274
				c0.417,0,0.824,0.084,1.222,0.254l-0.208,0.477c-0.388-0.16-0.74-0.24-1.056-0.24c-0.278,0-0.487,0.043-0.628,0.13
				c-0.141,0.087-0.212,0.208-0.212,0.361c0,0.104,0.026,0.191,0.08,0.265c0.053,0.073,0.138,0.142,0.256,0.208
				c0.118,0.066,0.344,0.162,0.678,0.286c0.459,0.167,0.77,0.335,0.931,0.505C226.265,361.06,226.346,361.273,226.346,361.529z"/>
			<path fill="#636466" d="M228.609,357.666c0-0.134,0.033-0.232,0.099-0.294c0.066-0.062,0.148-0.094,0.247-0.094
				c0.094,0,0.176,0.032,0.244,0.095c0.068,0.063,0.103,0.161,0.103,0.293s-0.034,0.23-0.103,0.295
				c-0.068,0.064-0.149,0.097-0.244,0.097c-0.099,0-0.181-0.032-0.247-0.097C228.643,357.896,228.609,357.798,228.609,357.666z
				 M229.245,362.585h-0.586v-3.871h0.586V362.585z"/>
			<path fill="#636466" d="M234.496,362.585v-2.504c0-0.315-0.072-0.551-0.215-0.707c-0.144-0.155-0.368-0.232-0.674-0.232
				c-0.405,0-0.702,0.109-0.89,0.328c-0.188,0.219-0.282,0.581-0.282,1.084v2.03h-0.586v-3.871h0.477l0.095,0.53h0.028
				c0.12-0.191,0.288-0.338,0.505-0.443c0.216-0.104,0.458-0.157,0.724-0.157c0.467,0,0.817,0.112,1.053,0.337
				c0.235,0.225,0.353,0.584,0.353,1.079v2.525H234.496z"/>
			<path fill="#636466" d="M239.281,362.656c-0.572,0-1.023-0.174-1.354-0.522c-0.331-0.348-0.496-0.832-0.496-1.452
				c0-0.624,0.153-1.119,0.461-1.486c0.307-0.367,0.719-0.551,1.238-0.551c0.485,0,0.868,0.159,1.151,0.478
				c0.283,0.319,0.424,0.74,0.424,1.263v0.371h-2.666c0.011,0.455,0.126,0.799,0.344,1.035c0.218,0.235,0.524,0.353,0.919,0.353
				c0.417,0,0.829-0.087,1.236-0.262v0.523c-0.207,0.089-0.403,0.153-0.588,0.192C239.766,362.636,239.542,362.656,239.281,362.656z
				 M239.123,359.135c-0.311,0-0.559,0.101-0.744,0.304c-0.185,0.202-0.293,0.483-0.327,0.84h2.023c0-0.37-0.082-0.653-0.247-0.849
				C239.664,359.233,239.429,359.135,239.123,359.135z"/>
			<path fill="#636466" d="M245.56,361.529c0,0.36-0.134,0.638-0.402,0.833c-0.269,0.196-0.645,0.293-1.13,0.293
				c-0.514,0-0.914-0.081-1.201-0.244v-0.543c0.186,0.094,0.386,0.168,0.599,0.222c0.213,0.054,0.419,0.081,0.616,0.081
				c0.306,0,0.542-0.048,0.707-0.146c0.165-0.097,0.247-0.246,0.247-0.446c0-0.151-0.065-0.28-0.196-0.387
				c-0.131-0.107-0.386-0.233-0.765-0.38c-0.36-0.134-0.616-0.251-0.768-0.351c-0.152-0.1-0.265-0.214-0.339-0.341
				c-0.074-0.127-0.111-0.278-0.111-0.455c0-0.316,0.128-0.564,0.385-0.747c0.256-0.183,0.608-0.274,1.056-0.274
				c0.417,0,0.824,0.084,1.222,0.254l-0.208,0.477c-0.388-0.16-0.74-0.24-1.056-0.24c-0.278,0-0.488,0.043-0.628,0.13
				c-0.141,0.087-0.212,0.208-0.212,0.361c0,0.104,0.026,0.191,0.079,0.265c0.053,0.073,0.138,0.142,0.256,0.208
				c0.118,0.066,0.344,0.162,0.678,0.286c0.459,0.167,0.769,0.335,0.931,0.505C245.479,361.06,245.56,361.273,245.56,361.529z"/>
			<path fill="#636466" d="M250.37,361.529c0,0.36-0.134,0.638-0.403,0.833c-0.269,0.196-0.645,0.293-1.13,0.293
				c-0.513,0-0.913-0.081-1.2-0.244v-0.543c0.186,0.094,0.385,0.168,0.598,0.222c0.213,0.054,0.418,0.081,0.617,0.081
				c0.306,0,0.542-0.048,0.706-0.146c0.165-0.097,0.247-0.246,0.247-0.446c0-0.151-0.065-0.28-0.196-0.387
				c-0.13-0.107-0.386-0.233-0.765-0.38c-0.36-0.134-0.616-0.251-0.768-0.351c-0.152-0.1-0.265-0.214-0.339-0.341
				c-0.074-0.127-0.111-0.278-0.111-0.455c0-0.316,0.128-0.564,0.385-0.747c0.257-0.183,0.609-0.274,1.056-0.274
				c0.417,0,0.824,0.084,1.222,0.254l-0.208,0.477c-0.389-0.16-0.741-0.24-1.056-0.24c-0.278,0-0.487,0.043-0.628,0.13
				c-0.142,0.087-0.212,0.208-0.212,0.361c0,0.104,0.026,0.191,0.079,0.265c0.053,0.073,0.139,0.142,0.256,0.208
				c0.118,0.066,0.344,0.162,0.678,0.286c0.459,0.167,0.77,0.335,0.931,0.505C250.289,361.06,250.37,361.273,250.37,361.529z"/>
			<path fill="#636466" d="M257.599,362.585h-0.6v-4.63h-1.635v-0.533h3.87v0.533h-1.635V362.585z"/>
			<path fill="#636466" d="M263.662,362.585l-0.117-0.551h-0.028c-0.193,0.243-0.386,0.407-0.578,0.493
				c-0.192,0.086-0.432,0.129-0.719,0.129c-0.384,0-0.685-0.099-0.902-0.296c-0.218-0.198-0.327-0.479-0.327-0.844
				c0-0.782,0.625-1.191,1.875-1.229l0.657-0.021v-0.24c0-0.304-0.065-0.528-0.196-0.673c-0.131-0.145-0.34-0.217-0.627-0.217
				c-0.323,0-0.688,0.099-1.095,0.296l-0.18-0.448c0.191-0.104,0.399-0.185,0.627-0.244c0.227-0.059,0.455-0.088,0.684-0.088
				c0.461,0,0.803,0.103,1.025,0.308c0.223,0.205,0.334,0.533,0.334,0.985v2.641H263.662z M262.337,362.172
				c0.365,0,0.652-0.1,0.86-0.3s0.312-0.48,0.312-0.84v-0.35l-0.586,0.025c-0.466,0.017-0.803,0.089-1.008,0.217
				c-0.206,0.128-0.309,0.328-0.309,0.599c0,0.212,0.064,0.373,0.192,0.484C261.927,362.117,262.106,362.172,262.337,362.172z"/>
			<path fill="#636466" d="M269.831,358.715v0.371l-0.717,0.085c0.066,0.082,0.125,0.19,0.177,0.323
				c0.052,0.133,0.078,0.283,0.078,0.451c0,0.379-0.13,0.681-0.389,0.907c-0.259,0.226-0.614,0.339-1.066,0.339
				c-0.115,0-0.224-0.009-0.325-0.028c-0.25,0.132-0.375,0.298-0.375,0.498c0,0.106,0.043,0.184,0.131,0.235
				c0.087,0.05,0.236,0.076,0.448,0.076h0.685c0.419,0,0.741,0.088,0.966,0.265c0.225,0.176,0.337,0.433,0.337,0.77
				c0,0.428-0.171,0.755-0.515,0.979s-0.845,0.337-1.505,0.337c-0.506,0-0.896-0.094-1.17-0.283
				c-0.274-0.188-0.411-0.454-0.411-0.798c0-0.235,0.075-0.439,0.226-0.611c0.151-0.172,0.363-0.288,0.636-0.35
				c-0.099-0.044-0.182-0.114-0.249-0.208c-0.067-0.094-0.101-0.204-0.101-0.329c0-0.141,0.038-0.265,0.113-0.371
				s0.194-0.208,0.357-0.307c-0.201-0.082-0.363-0.223-0.489-0.42c-0.126-0.197-0.189-0.424-0.189-0.678
				c0-0.424,0.127-0.75,0.382-0.98c0.254-0.229,0.615-0.344,1.081-0.344c0.203,0,0.385,0.023,0.547,0.07H269.831z M266.745,363.235
				c0,0.21,0.088,0.369,0.265,0.477c0.177,0.108,0.43,0.162,0.759,0.162c0.492,0,0.856-0.073,1.093-0.221
				c0.236-0.147,0.355-0.346,0.355-0.599c0-0.209-0.065-0.354-0.194-0.436c-0.129-0.082-0.373-0.122-0.731-0.122h-0.702
				c-0.266,0-0.474,0.063-0.622,0.191C266.819,362.815,266.745,362.997,266.745,363.235z M267.062,359.955
				c0,0.271,0.076,0.476,0.229,0.614c0.153,0.139,0.366,0.208,0.639,0.208c0.572,0,0.858-0.278,0.858-0.833
				c0-0.582-0.29-0.873-0.869-0.873c-0.275,0-0.487,0.074-0.636,0.222C267.137,359.442,267.062,359.663,267.062,359.955z"/>
			<path fill="#636466" d="M272.571,362.585h-0.586v-5.495h0.586V362.585z"/>
			<path fill="#636466" d="M275.125,357.666c0-0.134,0.033-0.232,0.099-0.294c0.066-0.062,0.148-0.094,0.247-0.094
				c0.094,0,0.175,0.032,0.244,0.095s0.103,0.161,0.103,0.293s-0.034,0.23-0.103,0.295c-0.068,0.064-0.149,0.097-0.244,0.097
				c-0.099,0-0.181-0.032-0.247-0.097C275.158,357.896,275.125,357.798,275.125,357.666z M275.76,362.585h-0.586v-3.871h0.586
				V362.585z"/>
			<path fill="#636466" d="M281.011,362.585v-2.504c0-0.315-0.071-0.551-0.215-0.707c-0.144-0.155-0.369-0.232-0.674-0.232
				c-0.405,0-0.702,0.109-0.89,0.328s-0.282,0.581-0.282,1.084v2.03h-0.586v-3.871h0.477l0.095,0.53h0.028
				c0.121-0.191,0.289-0.338,0.505-0.443c0.216-0.104,0.458-0.157,0.724-0.157c0.466,0,0.816,0.112,1.052,0.337
				c0.235,0.225,0.353,0.584,0.353,1.079v2.525H281.011z"/>
			<path fill="#636466" d="M285.796,362.656c-0.572,0-1.024-0.174-1.354-0.522c-0.331-0.348-0.496-0.832-0.496-1.452
				c0-0.624,0.154-1.119,0.46-1.486c0.308-0.367,0.72-0.551,1.238-0.551c0.485,0,0.869,0.159,1.151,0.478
				c0.283,0.319,0.424,0.74,0.424,1.263v0.371h-2.666c0.012,0.455,0.126,0.799,0.344,1.035c0.218,0.235,0.524,0.353,0.92,0.353
				c0.417,0,0.829-0.087,1.236-0.262v0.523c-0.207,0.089-0.403,0.153-0.588,0.192C286.281,362.636,286.058,362.656,285.796,362.656z
				 M285.637,359.135c-0.311,0-0.558,0.101-0.743,0.304c-0.185,0.202-0.294,0.483-0.327,0.84h2.023c0-0.37-0.083-0.653-0.247-0.849
				C286.179,359.233,285.943,359.135,285.637,359.135z"/>
			<path fill="#636466" d="M295.176,359.88h1.755v2.511c-0.273,0.087-0.551,0.153-0.834,0.198c-0.282,0.045-0.609,0.067-0.981,0.067
				c-0.782,0-1.391-0.232-1.826-0.697c-0.436-0.465-0.653-1.117-0.653-1.955c0-0.537,0.107-1.007,0.323-1.411
				c0.215-0.404,0.525-0.712,0.93-0.925c0.405-0.213,0.879-0.32,1.423-0.32c0.551,0,1.064,0.102,1.54,0.304l-0.233,0.529
				c-0.466-0.198-0.915-0.296-1.346-0.296c-0.628,0-1.119,0.187-1.473,0.562c-0.353,0.374-0.53,0.893-0.53,1.557
				c0,0.697,0.17,1.226,0.511,1.585c0.34,0.36,0.84,0.541,1.499,0.541c0.357,0,0.707-0.042,1.049-0.124v-1.589h-1.155V359.88z"/>
			<path fill="#636466" d="M302.782,360.646c0,0.631-0.159,1.124-0.477,1.478s-0.756,0.531-1.317,0.531
				c-0.346,0-0.653-0.081-0.922-0.244c-0.268-0.162-0.476-0.396-0.621-0.699c-0.146-0.303-0.219-0.659-0.219-1.066
				c0-0.631,0.158-1.122,0.473-1.474s0.753-0.528,1.314-0.528c0.541,0,0.972,0.18,1.291,0.54
				C302.623,359.545,302.782,360.032,302.782,360.646z M299.833,360.646c0,0.495,0.099,0.872,0.297,1.13
				c0.198,0.259,0.488,0.389,0.872,0.389s0.675-0.128,0.874-0.387c0.199-0.258,0.298-0.635,0.298-1.132
				c0-0.492-0.1-0.866-0.298-1.121c-0.199-0.255-0.493-0.383-0.881-0.383c-0.383,0-0.673,0.125-0.869,0.378
				C299.931,359.772,299.833,360.147,299.833,360.646z"/>
			<path fill="#636466" d="M306.805,362.656c-0.572,0-1.024-0.174-1.354-0.522c-0.331-0.348-0.496-0.832-0.496-1.452
				c0-0.624,0.154-1.119,0.461-1.486s0.72-0.551,1.237-0.551c0.485,0,0.869,0.159,1.151,0.478c0.283,0.319,0.424,0.74,0.424,1.263
				v0.371h-2.666c0.012,0.455,0.126,0.799,0.344,1.035c0.218,0.235,0.524,0.353,0.92,0.353c0.417,0,0.829-0.087,1.236-0.262v0.523
				c-0.207,0.089-0.403,0.153-0.588,0.192C307.289,362.636,307.066,362.656,306.805,362.656z M306.646,359.135
				c-0.311,0-0.558,0.101-0.743,0.304c-0.185,0.202-0.294,0.483-0.327,0.84h2.023c0-0.37-0.083-0.653-0.247-0.849
				C307.187,359.233,306.952,359.135,306.646,359.135z"/>
			<path fill="#636466" d="M313.083,361.529c0,0.36-0.134,0.638-0.403,0.833c-0.269,0.196-0.645,0.293-1.13,0.293
				c-0.513,0-0.914-0.081-1.201-0.244v-0.543c0.186,0.094,0.385,0.168,0.599,0.222c0.213,0.054,0.418,0.081,0.616,0.081
				c0.306,0,0.542-0.048,0.706-0.146c0.165-0.097,0.247-0.246,0.247-0.446c0-0.151-0.065-0.28-0.196-0.387
				c-0.13-0.107-0.385-0.233-0.765-0.38c-0.36-0.134-0.616-0.251-0.768-0.351c-0.152-0.1-0.265-0.214-0.339-0.341
				c-0.074-0.127-0.111-0.278-0.111-0.455c0-0.316,0.128-0.564,0.384-0.747c0.257-0.183,0.609-0.274,1.056-0.274
				c0.417,0,0.824,0.084,1.222,0.254l-0.208,0.477c-0.389-0.16-0.741-0.24-1.056-0.24c-0.278,0-0.487,0.043-0.628,0.13
				c-0.142,0.087-0.212,0.208-0.212,0.361c0,0.104,0.026,0.191,0.08,0.265c0.053,0.073,0.138,0.142,0.256,0.208
				s0.344,0.162,0.678,0.286c0.459,0.167,0.769,0.335,0.93,0.505C313.002,361.06,313.083,361.273,313.083,361.529z"/>
			<path fill="#636466" d="M322.643,362.585h-0.6v-2.43h-2.719v2.43h-0.601v-5.163h0.601v2.197h2.719v-2.197h0.6V362.585z"/>
			<path fill="#636466" d="M326.965,362.656c-0.572,0-1.023-0.174-1.354-0.522c-0.331-0.348-0.496-0.832-0.496-1.452
				c0-0.624,0.154-1.119,0.461-1.486s0.72-0.551,1.238-0.551c0.485,0,0.869,0.159,1.151,0.478c0.283,0.319,0.424,0.74,0.424,1.263
				v0.371h-2.666c0.011,0.455,0.126,0.799,0.344,1.035c0.218,0.235,0.525,0.353,0.92,0.353c0.417,0,0.829-0.087,1.236-0.262v0.523
				c-0.207,0.089-0.403,0.153-0.588,0.192C327.449,362.636,327.226,362.656,326.965,362.656z M326.806,359.135
				c-0.311,0-0.559,0.101-0.744,0.304c-0.185,0.202-0.293,0.483-0.327,0.84h2.023c0-0.37-0.083-0.653-0.247-0.849
				C327.348,359.233,327.112,359.135,326.806,359.135z"/>
			<path fill="#636466" d="M332.513,358.645c0.172,0,0.326,0.014,0.462,0.042l-0.081,0.544c-0.16-0.035-0.301-0.053-0.424-0.053
				c-0.313,0-0.581,0.127-0.803,0.381s-0.334,0.571-0.334,0.95v2.077h-0.586v-3.871h0.484l0.067,0.717h0.028
				c0.144-0.251,0.316-0.446,0.519-0.583C332.047,358.712,332.271,358.645,332.513,358.645z"/>
			<path fill="#636466" d="M336.694,362.656c-0.572,0-1.023-0.174-1.354-0.522c-0.331-0.348-0.496-0.832-0.496-1.452
				c0-0.624,0.154-1.119,0.461-1.486s0.72-0.551,1.238-0.551c0.485,0,0.869,0.159,1.151,0.478c0.283,0.319,0.424,0.74,0.424,1.263
				v0.371h-2.666c0.011,0.455,0.126,0.799,0.344,1.035c0.218,0.235,0.525,0.353,0.92,0.353c0.417,0,0.829-0.087,1.236-0.262v0.523
				c-0.207,0.089-0.403,0.153-0.588,0.192C337.178,362.636,336.955,362.656,336.694,362.656z M336.535,359.135
				c-0.311,0-0.559,0.101-0.744,0.304c-0.185,0.202-0.293,0.483-0.327,0.84h2.023c0-0.37-0.083-0.653-0.247-0.849
				C337.077,359.233,336.841,359.135,336.535,359.135z"/>
		</g>
	</g>
	<g>
		<polygon fill="#DAA520" points="244.399,307.037 237.316,294.773 244.399,282.512 268.239,282.512 263.521,274.34 239.906,274.34 
			228.098,294.781 239.906,315.231 263.521,315.231 268.25,307.037 		"/>
		<polygon fill="#DAA520" points="271.462,320.587 278.545,308.324 271.462,296.062 252.368,296.062 252.342,287.89 275.957,287.89 
			287.763,308.331 275.955,328.782 252.342,328.782 252.368,320.587 		"/>
	</g>
</g>
<rect x="252.131" y="318.436" fill="#DAA520" width="7.467" height="10.346"/>
<rect x="252.336" y="287.89" fill="#DAA520" width="7.467" height="10.675"/>
</svg>
